<svg width="63" height="62" viewBox="0 0 63 62" fill="none" xmlns="http://www.w3.org/2000/svg">
<path d="M61.5712 55.0994L60.6868 54.2148C60.3321 53.86 59.757 53.8601 59.4025 54.2146C59.0476 54.5693 59.0477 55.1444 59.4023 55.499L60.1583 56.2551L56.3054 60.1082L49.7549 53.5578L53.608 49.7047L56.6639 52.7607C57.0187 53.1152 57.5937 53.1152 57.9484 52.7607C58.303 52.4059 58.303 51.8309 57.9484 51.4762L54.2519 47.7798C54.2512 47.7792 54.2508 47.7786 54.2503 47.778L51.6815 45.2093C51.6808 45.2085 51.6801 45.2081 51.6793 45.2073L49.4123 42.9403C49.1036 42.6314 48.693 42.4613 48.2563 42.4613C47.8195 42.4613 47.409 42.6314 47.1003 42.9401L46.9718 43.0687L43.722 39.818C46.0448 36.9159 47.7225 33.4767 48.5367 29.7191H54.9359C55.4376 29.7191 55.8441 29.3126 55.8441 28.8109C55.8441 28.3092 55.4376 27.9027 54.9359 27.9027H48.8587C48.9387 27.325 48.9986 26.7411 49.0374 26.1515H59.2649C59.7666 26.1515 60.1731 25.745 60.1731 25.2433C60.1731 24.7416 59.7666 24.3351 59.2649 24.3351H49.0911C49.0867 23.7475 49.0624 23.1635 49.0178 22.5839H54.936C55.4377 22.5839 55.8442 22.1774 55.8442 21.6757C55.8442 21.174 55.4377 20.7675 54.936 20.7675H48.8104C48.1758 16.5923 46.479 12.6868 43.8087 9.31332C43.4974 8.92013 42.9263 8.85377 42.5329 9.16486C42.1397 9.47619 42.0732 10.0474 42.3844 10.4407C45.5849 14.4839 47.2766 19.353 47.2766 24.5215C47.2766 37.0411 37.0912 47.2266 24.5715 47.2266C12.0519 47.2266 1.86646 37.0411 1.86646 24.5215C1.86646 12.0018 12.0519 1.81641 24.5715 1.81641C30.2312 1.81641 35.6529 3.91109 39.8377 7.71452C40.2087 8.05213 40.7834 8.02452 41.1206 7.65337C41.4579 7.28221 41.4306 6.70775 41.0593 6.37038C36.5396 2.26239 30.6841 0 24.5715 0C11.0503 0 0.0500488 11.0003 0.0500488 24.5215C0.0500488 36.4591 8.62518 46.4299 19.9388 48.6021V54.7293C19.9388 55.231 20.3454 55.6375 20.8471 55.6375C21.3487 55.6375 21.7553 55.231 21.7553 54.7293V48.8803C22.3332 48.9467 22.9172 48.9932 23.5065 49.0185V59.0003C23.5065 59.502 23.913 59.9085 24.4147 59.9085C24.9164 59.9085 25.3229 59.502 25.3229 59.0003V49.0304C25.9119 49.0126 26.4961 48.975 27.0742 48.9162V54.7293C27.0742 55.231 27.4807 55.6375 27.9824 55.6375C28.4841 55.6375 28.8906 55.231 28.8906 54.7293V48.662C32.9912 47.9304 36.7411 46.175 39.8682 43.672L43.1189 46.9219L42.9905 47.0503C42.6816 47.359 42.5114 47.7695 42.5114 48.2063C42.5114 48.6431 42.6816 49.0536 42.9903 49.3623L45.2581 51.63C45.2586 51.6305 45.2589 51.631 45.2594 51.6315L47.8282 54.2002C47.8287 54.2007 47.8294 54.2012 47.8299 54.2018L55.1492 61.521C55.4579 61.83 55.8685 62 56.3052 62C56.742 62 57.1524 61.83 57.4613 61.5212L61.5712 57.4113C61.88 57.1024 62.05 56.692 62.05 56.2552C62.05 55.8184 61.88 55.4079 61.5712 55.0994ZM42.5323 41.1971L45.6873 44.3528L44.4029 45.6371L41.2472 42.4821C41.6912 42.0698 42.1198 41.6411 42.5323 41.1971ZM48.4705 52.2735L47.186 50.9892L51.0391 47.1361L52.3234 48.4205L48.4705 52.2735ZM48.2564 44.3531L49.7548 45.8515L45.9017 49.7046L44.4033 48.2062L48.2564 44.3531Z" fill="url(#paint0_linear_46_2010)"/>
<path d="M11.924 41.1467C15.5616 43.8809 19.9313 45.3552 24.5715 45.4102C36.0896 45.4102 45.4602 36.0396 45.4602 24.5215C45.4602 13.0034 36.0896 3.63281 24.5715 3.63281C19.013 3.63281 13.7847 5.8085 9.85029 9.75907C5.93242 13.6928 3.7422 18.9322 3.68286 24.5118C3.62837 29.6485 5.49479 34.5857 8.93821 38.414C9.27364 38.7868 9.84787 38.8173 10.2208 38.4819C10.5938 38.1465 10.6242 37.5721 10.2888 37.1993C7.1505 33.7103 5.4495 29.2113 5.49927 24.5312C5.5534 19.4279 7.55568 14.637 11.1373 11.041C14.7284 7.43504 19.4994 5.44922 24.5715 5.44922C35.088 5.44922 43.6438 14.005 43.6438 24.5215C43.6438 35.038 35.088 43.5938 24.5823 43.5939C20.3417 43.5435 16.342 42.1951 13.0153 39.6948C12.6146 39.3931 12.045 39.4741 11.7437 39.8751C11.4422 40.276 11.523 40.8454 11.924 41.1467Z" fill="url(#paint1_linear_46_2010)"/>
<path d="M28.0227 8.29492H21.7258C20.958 8.29492 20.3333 8.91964 20.3333 9.6875V12.8965H14.4602C13.6923 12.8965 13.0676 13.5212 13.0676 14.2891V24.0371H11.8521C11.3504 24.0371 10.9439 24.4436 10.9439 24.9453C10.9439 25.447 11.3504 25.8535 11.8521 25.8535H37.8964C38.3981 25.8535 38.8046 25.447 38.8046 24.9453C38.8046 24.4436 38.3981 24.0371 37.8964 24.0371H36.6809V18.8906C36.6809 18.1228 36.0562 17.498 35.2883 17.498H29.4153V9.6875C29.4153 8.91964 28.7906 8.29492 28.0227 8.29492ZM14.884 14.7129H20.3333V24.0371H14.884V14.7129ZM22.1497 10.1113H27.5989V24.0371H22.1497V10.1113ZM34.8645 19.3145V24.0371H29.4153V19.3145H34.8645Z" fill="url(#paint2_linear_46_2010)"/>
<path d="M35.0461 33.5494H30.7704L28.8281 28.5842C28.6908 28.2334 28.3544 28.0063 27.9743 28.0068C27.5974 28.0102 27.2618 28.246 27.1307 28.5993L24.4764 35.757L22.6212 30.4988C22.5025 30.1622 22.1976 29.9263 21.8418 29.896C21.4865 29.8652 21.1458 30.0466 20.9717 30.3581L19.1901 33.5493H14.9257C14.424 33.5493 14.0175 33.9558 14.0175 34.4575C14.0175 34.9592 14.424 35.3657 14.9257 35.3657H19.7232C20.0523 35.3657 20.3558 35.1875 20.5162 34.9002L21.5774 32.9996L23.5985 38.7286C23.7258 39.0893 24.0652 39.3315 24.4478 39.3346H24.4552C24.8345 39.3346 25.1745 39.0985 25.3066 38.7421L28.0049 31.4658L29.3046 34.7884C29.4408 35.1366 29.7764 35.3658 30.1503 35.3658H35.0461C35.5478 35.3658 35.9543 34.9593 35.9543 34.4576C35.9543 33.9559 35.5478 33.5494 35.0461 33.5494Z" fill="url(#paint3_linear_46_2010)"/>
<defs>
<linearGradient id="paint0_linear_46_2010" x1="31.049" y1="0.00511888" x2="31.049" y2="61.9949" gradientUnits="userSpaceOnUse">
<stop stop-color="#FBBD12"/>
<stop offset="0.25" stop-color="#A2D63C"/>
<stop offset="0.47" stop-color="#61C9BF"/>
<stop offset="0.81" stop-color="#007E88"/>
<stop offset="1" stop-color="#2670DB"/>
</linearGradient>
<linearGradient id="paint1_linear_46_2010" x1="31.049" y1="0.00511888" x2="31.049" y2="61.9949" gradientUnits="userSpaceOnUse">
<stop stop-color="#FBBD12"/>
<stop offset="0.25" stop-color="#A2D63C"/>
<stop offset="0.47" stop-color="#61C9BF"/>
<stop offset="0.81" stop-color="#007E88"/>
<stop offset="1" stop-color="#2670DB"/>
</linearGradient>
<linearGradient id="paint2_linear_46_2010" x1="31.049" y1="0.00511888" x2="31.049" y2="61.9949" gradientUnits="userSpaceOnUse">
<stop stop-color="#FBBD12"/>
<stop offset="0.25" stop-color="#A2D63C"/>
<stop offset="0.47" stop-color="#61C9BF"/>
<stop offset="0.81" stop-color="#007E88"/>
<stop offset="1" stop-color="#2670DB"/>
</linearGradient>
<linearGradient id="paint3_linear_46_2010" x1="31.049" y1="0.00511888" x2="31.049" y2="61.9949" gradientUnits="userSpaceOnUse">
<stop stop-color="#FBBD12"/>
<stop offset="0.25" stop-color="#A2D63C"/>
<stop offset="0.47" stop-color="#61C9BF"/>
<stop offset="0.81" stop-color="#007E88"/>
<stop offset="1" stop-color="#2670DB"/>
</linearGradient>
</defs>
</svg>
